<?xml version="1.0" encoding="iso-8859-1"?>
<!-- Generator: Adobe Illustrator 19.0.0, SVG Export Plug-In . SVG Version: 6.00 Build 0)  -->
<svg version="1.1" id="Capa_1" xmlns="http://www.w3.org/2000/svg" xmlns:xlink="http://www.w3.org/1999/xlink" x="0px" y="0px"
	 viewBox="0 0 512 512" style="enable-background:new 0 0 512 512;" xml:space="preserve">
<g transform="translate(0 -1)">
	<polygon style="fill:#E3E7F2;" points="410.989,111.936 418.132,71.447 307.2,53.663 296.925,111.936 	"/>
	<polygon style="fill:#A4C2F7;" points="341.332,9.537 170.189,24.104 175.207,71.225 229.691,60.737 238.72,111.936 
		296.925,111.936 307.2,53.663 346.648,59.986 	"/>
	<polygon style="fill:#7FACFA;" points="238.72,111.936 229.691,60.737 85.428,88.496 89.558,111.936 	"/>
	<path style="fill:#E3E7F2;" d="M102.401,111.936h307.198c9.426,0,17.067,7.641,17.067,17.067v34.133
		c0,9.426-7.641,17.067-17.067,17.067H102.401c-9.426,0-17.067-7.641-17.067-17.067v-34.133
		C85.334,119.577,92.975,111.936,102.401,111.936z"/>
	<path style="fill:#FFFFFF;" d="M85.334,163.136v-34.133c0-9.426,7.641-17.067,17.067-17.067h-25.6
		c-9.426,0-17.067,7.641-17.067,17.067v34.133c0,9.426,7.641,17.066,17.067,17.067h25.6
		C92.975,180.203,85.334,172.562,85.334,163.136L85.334,163.136z"/>
	<path style="fill:#7FACFA;" d="M435.199,111.936h-25.6c9.426,0,17.067,7.641,17.067,17.067v34.133
		c0,9.426-7.641,17.066-17.067,17.067h25.6c9.426,0,17.066-7.641,17.067-17.067v-34.133
		C452.265,119.577,444.624,111.936,435.199,111.936z"/>
	<path style="fill:#D4E1F4;" d="M108.09,180.203l31.572,308.615c0.006,8.202,6.321,15.018,14.498,15.649h203.679
		c8.177-0.632,14.492-7.448,14.498-15.649l31.572-308.615L108.09,180.203L108.09,180.203z"/>
	<path style="fill:#E3E7F2;" d="M136.534,504.467h238.931c8.876,0,16.271-6.804,17.008-15.65l4.627-52.617H114.899l4.627,52.617
		C120.263,497.662,127.657,504.467,136.534,504.467z"/>
	<path style="fill:#FFFFFF;" d="M139.102,488.818L107.53,180.203h-25.6l37.036,308.615c0.737,8.846,8.131,15.65,17.008,15.65H153.6
		C145.423,503.835,139.108,497.018,139.102,488.818z"/>
	<path style="fill:#7FACFA;" d="M401.065,180.203l-31.572,308.615c-0.006,8.202-6.321,15.018-14.498,15.65h17.626
		c8.876,0,16.271-6.804,17.008-15.65l37.036-308.615L401.065,180.203L401.065,180.203z"/>
	<g>
		<path style="fill:#428DFF;" d="M435.199,188.736H76.802c-14.132-0.015-25.585-11.468-25.6-25.6v-34.133
			c0.015-14.132,11.468-25.585,25.6-25.6h358.397c14.132,0.015,25.585,11.468,25.6,25.6v34.133
			C460.783,177.268,449.331,188.721,435.199,188.736L435.199,188.736z M76.802,120.47c-4.711,0.005-8.529,3.822-8.533,8.533v34.133
			c0.005,4.711,3.822,8.529,8.533,8.533h358.397c4.712-0.003,8.53-3.822,8.533-8.533v-34.133c-0.003-4.712-3.822-8.53-8.533-8.533
			H76.802z"/>
		<path style="fill:#428DFF;" d="M375.465,513H136.534c-13.287-0.07-24.339-10.24-25.513-23.475L74.018,181.22
			c-0.293-2.423,0.466-4.856,2.086-6.682s3.944-2.87,6.385-2.868h347.018c2.441-0.001,4.765,1.043,6.385,2.869
			c1.62,1.826,2.381,4.258,2.09,6.681l-37.038,308.615C399.66,502.952,388.647,512.966,375.465,513L375.465,513z M92.105,188.736
			L127.997,487.8c0.281,4.527,4.003,8.072,8.538,8.133h238.931c4.43-0.022,8.114-3.413,8.504-7.825l35.921-299.373L92.105,188.736
			L92.105,188.736z"/>
		<path style="fill:#428DFF;" d="M238.716,120.47H89.559c-4.14-0.001-7.683-2.973-8.404-7.05l-4.133-23.433
			c-0.809-4.592,2.214-8.984,6.792-9.867l144.261-27.767c2.245-0.429,4.568,0.059,6.451,1.356c1.882,1.297,3.167,3.293,3.566,5.544
			l9.029,51.2c0.438,2.484-0.246,5.035-1.867,6.967C243.632,119.353,241.239,120.469,238.716,120.47z M96.717,103.404h131.828
			l-5.758-32.65L95.288,95.296L96.717,103.404z"/>
		<path style="fill:#428DFF;" d="M410.99,120.47H296.925c-2.523-0.001-4.916-1.117-6.537-3.049
			c-1.621-1.932-2.305-4.483-1.867-6.967l10.275-58.275c0.802-4.594,5.15-7.689,9.754-6.942l110.932,17.783
			c2.258,0.361,4.276,1.614,5.601,3.477c1.326,1.863,1.847,4.18,1.449,6.432l-7.142,40.492
			C418.672,117.497,415.13,120.47,410.99,120.47L410.99,120.47z M307.095,103.404h96.737l4.392-24.909L314.146,63.42
			L307.095,103.404z"/>
		<path style="fill:#428DFF;" d="M296.925,120.47h-58.208c-4.14-0.001-7.683-2.973-8.404-7.05l-7.525-42.667l-45.967,8.85
			c-2.344,0.449-4.769-0.104-6.687-1.524s-3.154-3.578-3.409-5.951l-5.025-47.117c-0.247-2.282,0.437-4.567,1.897-6.338
			c1.46-1.771,3.574-2.878,5.861-3.07L340.607,1.038c2.231-0.213,4.455,0.468,6.183,1.895c1.728,1.427,2.818,3.482,3.03,5.713
			l5.313,50.45c0.276,2.64-0.693,5.259-2.621,7.083c-1.92,1.839-4.594,2.667-7.217,2.233l-31.15-4.992l-8.817,50
			C304.608,117.497,301.065,120.469,296.925,120.47z M245.875,103.404h43.891l9.029-51.225c0.802-4.594,5.15-7.689,9.754-6.942
			l28.442,4.558l-3.271-31.05L179.592,31.871l3.117,29.217l45.367-8.733c2.245-0.429,4.568,0.059,6.451,1.356
			c1.882,1.297,3.167,3.293,3.566,5.544L245.875,103.404z"/>
		<path style="fill:#428DFF;" d="M375.465,513H136.534c-13.287-0.07-24.339-10.24-25.513-23.475l-4.621-52.575
			c-0.211-2.384,0.589-4.748,2.206-6.513c1.617-1.765,3.901-2.771,6.294-2.77h282.198c2.394-0.001,4.678,1.004,6.294,2.77
			c1.617,1.766,2.417,4.129,2.206,6.514l-4.625,52.617C399.785,502.787,388.738,512.935,375.465,513L375.465,513z M124.217,444.734
			l3.808,43.333c0.375,4.428,4.065,7.839,8.508,7.867h238.931c4.43-0.022,8.114-3.413,8.504-7.825l3.813-43.375H124.217z"/>
		<path style="fill:#428DFF;" d="M256,393.534c-2.263,0.001-4.434-0.898-6.035-2.499c-1.6-1.6-2.499-3.771-2.499-6.035V231.401
			c0-4.713,3.821-8.533,8.533-8.533c4.712,0,8.533,3.82,8.533,8.533V385c0.001,2.263-0.898,4.434-2.499,6.035
			C260.434,392.636,258.263,393.535,256,393.534L256,393.534z"/>
		<path style="fill:#428DFF;" d="M177.351,393.243c-4.422-0.005-8.107-3.387-8.492-7.792l-13.383-153.016
			c-0.41-4.694,3.064-8.832,7.758-9.242c4.694-0.41,8.832,3.064,9.242,7.758l13.383,153.016c0.197,2.254-0.509,4.495-1.964,6.228
			c-1.455,1.733-3.539,2.817-5.794,3.013C177.851,393.234,177.596,393.243,177.351,393.243z"/>
		<path style="fill:#428DFF;" d="M334.65,393.243c-0.246,0-0.5-0.009-0.75-0.033c-2.255-0.196-4.339-1.28-5.794-3.013
			s-2.162-3.974-1.965-6.228l13.383-153.016c0.41-4.694,4.547-8.168,9.242-7.758c4.695,0.41,8.168,4.547,7.758,9.242L343.14,385.453
			C342.756,389.856,339.07,393.238,334.65,393.243z"/>
	</g>
</g>
<g>
</g>
<g>
</g>
<g>
</g>
<g>
</g>
<g>
</g>
<g>
</g>
<g>
</g>
<g>
</g>
<g>
</g>
<g>
</g>
<g>
</g>
<g>
</g>
<g>
</g>
<g>
</g>
<g>
</g>
</svg>
